<svg width="208" height="48" viewBox="0 0 208 48" fill="none" xmlns="http://www.w3.org/2000/svg">
<rect x="0.5" y="0.5" width="207" height="47" rx="23.5" fill="#FFF1EF"/>
<path d="M23.384 17.49V25.464C23.384 26.412 23.63 27.126 24.122 27.606C24.626 28.086 25.322 28.326 26.21 28.326C27.11 28.326 27.806 28.086 28.298 27.606C28.802 27.126 29.054 26.412 29.054 25.464V17.49H31.106V25.428C31.106 26.448 30.884 27.312 30.44 28.02C29.996 28.728 29.402 29.256 28.658 29.604C27.914 29.952 27.092 30.126 26.192 30.126C25.292 30.126 24.47 29.952 23.726 29.604C22.994 29.256 22.412 28.728 21.98 28.02C21.548 27.312 21.332 26.448 21.332 25.428V17.49H23.384ZM38.7817 19.92C39.5617 19.92 40.2577 20.082 40.8697 20.406C41.4937 20.73 41.9797 21.21 42.3277 21.846C42.6757 22.482 42.8497 23.25 42.8497 24.15V30H40.8157V24.456C40.8157 23.568 40.5937 22.89 40.1497 22.422C39.7057 21.942 39.0997 21.702 38.3317 21.702C37.5637 21.702 36.9517 21.942 36.4957 22.422C36.0517 22.89 35.8297 23.568 35.8297 24.456V30H33.7777V20.082H35.8297V21.216C36.1657 20.808 36.5917 20.49 37.1077 20.262C37.6357 20.034 38.1937 19.92 38.7817 19.92ZM47.5192 16.68V30H45.4672V16.68H47.5192ZM51.2573 18.768C50.8853 18.768 50.5733 18.642 50.3213 18.39C50.0693 18.138 49.9433 17.826 49.9433 17.454C49.9433 17.082 50.0693 16.77 50.3213 16.518C50.5733 16.266 50.8853 16.14 51.2573 16.14C51.6173 16.14 51.9233 16.266 52.1753 16.518C52.4273 16.77 52.5533 17.082 52.5533 17.454C52.5533 17.826 52.4273 18.138 52.1753 18.39C51.9233 18.642 51.6173 18.768 51.2573 18.768ZM52.2653 20.082V30H50.2133V20.082H52.2653ZM66.9654 19.92C67.7454 19.92 68.4414 20.082 69.0534 20.406C69.6774 20.73 70.1634 21.21 70.5114 21.846C70.8714 22.482 71.0514 23.25 71.0514 24.15V30H69.0174V24.456C69.0174 23.568 68.7954 22.89 68.3514 22.422C67.9074 21.942 67.3014 21.702 66.5334 21.702C65.7654 21.702 65.1534 21.942 64.6974 22.422C64.2534 22.89 64.0314 23.568 64.0314 24.456V30H61.9974V24.456C61.9974 23.568 61.7754 22.89 61.3314 22.422C60.8874 21.942 60.2814 21.702 59.5134 21.702C58.7454 21.702 58.1334 21.942 57.6774 22.422C57.2334 22.89 57.0114 23.568 57.0114 24.456V30H54.9594V20.082H57.0114V21.216C57.3474 20.808 57.7734 20.49 58.2894 20.262C58.8054 20.034 59.3574 19.92 59.9454 19.92C60.7374 19.92 61.4454 20.088 62.0694 20.424C62.6934 20.76 63.1734 21.246 63.5094 21.882C63.8094 21.282 64.2774 20.808 64.9134 20.46C65.5494 20.1 66.2334 19.92 66.9654 19.92ZM74.7065 18.768C74.3345 18.768 74.0225 18.642 73.7705 18.39C73.5185 18.138 73.3925 17.826 73.3925 17.454C73.3925 17.082 73.5185 16.77 73.7705 16.518C74.0225 16.266 74.3345 16.14 74.7065 16.14C75.0665 16.14 75.3725 16.266 75.6245 16.518C75.8765 16.77 76.0025 17.082 76.0025 17.454C76.0025 17.826 75.8765 18.138 75.6245 18.39C75.3725 18.642 75.0665 18.768 74.7065 18.768ZM75.7145 20.082V30H73.6625V20.082H75.7145ZM80.8026 21.756V27.246C80.8026 27.618 80.8866 27.888 81.0546 28.056C81.2346 28.212 81.5346 28.29 81.9546 28.29H83.2146V30H81.5946C80.6706 30 79.9626 29.784 79.4706 29.352C78.9786 28.92 78.7326 28.218 78.7326 27.246V21.756H77.5626V20.082H78.7326V17.616H80.8026V20.082H83.2146V21.756H80.8026ZM94.1959 24.798C94.1959 25.17 94.1719 25.506 94.1239 25.806H86.5459C86.6059 26.598 86.8999 27.234 87.4279 27.714C87.9559 28.194 88.6039 28.434 89.3719 28.434C90.4759 28.434 91.2559 27.972 91.7119 27.048H93.9259C93.6259 27.96 93.0799 28.71 92.2879 29.298C91.5079 29.874 90.5359 30.162 89.3719 30.162C88.4239 30.162 87.5719 29.952 86.8159 29.532C86.0719 29.1 85.4839 28.5 85.0519 27.732C84.6319 26.952 84.4219 26.052 84.4219 25.032C84.4219 24.012 84.6259 23.118 85.0339 22.35C85.4539 21.57 86.0359 20.97 86.7799 20.55C87.5359 20.13 88.3999 19.92 89.3719 19.92C90.3079 19.92 91.1419 20.124 91.8739 20.532C92.6059 20.94 93.1759 21.516 93.5839 22.26C93.9919 22.992 94.1959 23.838 94.1959 24.798ZM92.0539 24.15C92.0419 23.394 91.7719 22.788 91.2439 22.332C90.7159 21.876 90.0619 21.648 89.2819 21.648C88.5739 21.648 87.9679 21.876 87.4639 22.332C86.9599 22.776 86.6599 23.382 86.5639 24.15H92.0539ZM95.5312 24.996C95.5312 24 95.7352 23.118 96.1432 22.35C96.5632 21.582 97.1272 20.988 97.8352 20.568C98.5552 20.136 99.3532 19.92 100.229 19.92C100.877 19.92 101.513 20.064 102.137 20.352C102.773 20.628 103.277 21 103.649 21.468V16.68H105.719V30H103.649V28.506C103.313 28.986 102.845 29.382 102.245 29.694C101.657 30.006 100.979 30.162 100.211 30.162C99.3472 30.162 98.5552 29.946 97.8352 29.514C97.1272 29.07 96.5632 28.458 96.1432 27.678C95.7352 26.886 95.5312 25.992 95.5312 24.996ZM103.649 25.032C103.649 24.348 103.505 23.754 103.217 23.25C102.941 22.746 102.575 22.362 102.119 22.098C101.663 21.834 101.171 21.702 100.643 21.702C100.115 21.702 99.6232 21.834 99.1672 22.098C98.7112 22.35 98.3392 22.728 98.0512 23.232C97.7752 23.724 97.6372 24.312 97.6372 24.996C97.6372 25.68 97.7752 26.28 98.0512 26.796C98.3392 27.312 98.7112 27.708 99.1672 27.984C99.6352 28.248 100.127 28.38 100.643 28.38C101.171 28.38 101.663 28.248 102.119 27.984C102.575 27.72 102.941 27.336 103.217 26.832C103.505 26.316 103.649 25.716 103.649 25.032ZM117.248 21.756H115.412V30H113.342V21.756H112.172V20.082H113.342V19.38C113.342 18.24 113.642 17.412 114.242 16.896C114.854 16.368 115.808 16.104 117.104 16.104V17.814C116.48 17.814 116.042 17.934 115.79 18.174C115.538 18.402 115.412 18.804 115.412 19.38V20.082H117.248V21.756ZM128.157 24.798C128.157 25.17 128.133 25.506 128.085 25.806H120.507C120.567 26.598 120.861 27.234 121.389 27.714C121.917 28.194 122.565 28.434 123.333 28.434C124.437 28.434 125.217 27.972 125.673 27.048H127.887C127.587 27.96 127.041 28.71 126.249 29.298C125.469 29.874 124.497 30.162 123.333 30.162C122.385 30.162 121.533 29.952 120.777 29.532C120.033 29.1 119.445 28.5 119.013 27.732C118.593 26.952 118.383 26.052 118.383 25.032C118.383 24.012 118.587 23.118 118.995 22.35C119.415 21.57 119.997 20.97 120.741 20.55C121.497 20.13 122.361 19.92 123.333 19.92C124.269 19.92 125.103 20.124 125.835 20.532C126.567 20.94 127.137 21.516 127.545 22.26C127.953 22.992 128.157 23.838 128.157 24.798ZM126.015 24.15C126.003 23.394 125.733 22.788 125.205 22.332C124.677 21.876 124.023 21.648 123.243 21.648C122.535 21.648 121.929 21.876 121.425 22.332C120.921 22.776 120.621 23.382 120.525 24.15H126.015ZM129.492 24.996C129.492 24 129.696 23.118 130.104 22.35C130.524 21.582 131.088 20.988 131.796 20.568C132.516 20.136 133.308 19.92 134.172 19.92C134.952 19.92 135.63 20.076 136.206 20.388C136.794 20.688 137.262 21.066 137.61 21.522V20.082H139.68V30H137.61V28.524C137.262 28.992 136.788 29.382 136.188 29.694C135.588 30.006 134.904 30.162 134.136 30.162C133.284 30.162 132.504 29.946 131.796 29.514C131.088 29.07 130.524 28.458 130.104 27.678C129.696 26.886 129.492 25.992 129.492 24.996ZM137.61 25.032C137.61 24.348 137.466 23.754 137.178 23.25C136.902 22.746 136.536 22.362 136.08 22.098C135.624 21.834 135.132 21.702 134.604 21.702C134.076 21.702 133.584 21.834 133.128 22.098C132.672 22.35 132.3 22.728 132.012 23.232C131.736 23.724 131.598 24.312 131.598 24.996C131.598 25.68 131.736 26.28 132.012 26.796C132.3 27.312 132.672 27.708 133.128 27.984C133.596 28.248 134.088 28.38 134.604 28.38C135.132 28.38 135.624 28.248 136.08 27.984C136.536 27.72 136.902 27.336 137.178 26.832C137.466 26.316 137.61 25.716 137.61 25.032ZM144.769 21.756V27.246C144.769 27.618 144.853 27.888 145.021 28.056C145.201 28.212 145.501 28.29 145.921 28.29H147.181V30H145.561C144.637 30 143.929 29.784 143.437 29.352C142.945 28.92 142.699 28.218 142.699 27.246V21.756H141.529V20.082H142.699V17.616H144.769V20.082H147.181V21.756H144.769ZM158.055 20.082V30H156.003V28.83C155.679 29.238 155.253 29.562 154.725 29.802C154.209 30.03 153.657 30.144 153.069 30.144C152.289 30.144 151.587 29.982 150.963 29.658C150.351 29.334 149.865 28.854 149.505 28.218C149.157 27.582 148.983 26.814 148.983 25.914V20.082H151.017V25.608C151.017 26.496 151.239 27.18 151.683 27.66C152.127 28.128 152.733 28.362 153.501 28.362C154.269 28.362 154.875 28.128 155.319 27.66C155.775 27.18 156.003 26.496 156.003 25.608V20.082H158.055ZM162.814 21.522C163.114 21.018 163.51 20.628 164.002 20.352C164.506 20.064 165.1 19.92 165.784 19.92V22.044H165.262C164.458 22.044 163.846 22.248 163.426 22.656C163.018 23.064 162.814 23.772 162.814 24.78V30H160.762V20.082H162.814V21.522ZM176.76 24.798C176.76 25.17 176.736 25.506 176.688 25.806H169.11C169.17 26.598 169.464 27.234 169.992 27.714C170.52 28.194 171.168 28.434 171.936 28.434C173.04 28.434 173.82 27.972 174.276 27.048H176.49C176.19 27.96 175.644 28.71 174.852 29.298C174.072 29.874 173.1 30.162 171.936 30.162C170.988 30.162 170.136 29.952 169.38 29.532C168.636 29.1 168.048 28.5 167.616 27.732C167.196 26.952 166.986 26.052 166.986 25.032C166.986 24.012 167.19 23.118 167.598 22.35C168.018 21.57 168.6 20.97 169.344 20.55C170.1 20.13 170.964 19.92 171.936 19.92C172.872 19.92 173.706 20.124 174.438 20.532C175.17 20.94 175.74 21.516 176.148 22.26C176.556 22.992 176.76 23.838 176.76 24.798ZM174.618 24.15C174.606 23.394 174.336 22.788 173.808 22.332C173.28 21.876 172.626 21.648 171.846 21.648C171.138 21.648 170.532 21.876 170.028 22.332C169.524 22.776 169.224 23.382 169.128 24.15H174.618ZM182.38 30.162C181.6 30.162 180.898 30.024 180.274 29.748C179.662 29.46 179.176 29.076 178.816 28.596C178.456 28.104 178.264 27.558 178.24 26.958H180.364C180.4 27.378 180.598 27.732 180.958 28.02C181.33 28.296 181.792 28.434 182.344 28.434C182.92 28.434 183.364 28.326 183.676 28.11C184 27.882 184.162 27.594 184.162 27.246C184.162 26.874 183.982 26.598 183.622 26.418C183.274 26.238 182.716 26.04 181.948 25.824C181.204 25.62 180.598 25.422 180.13 25.23C179.662 25.038 179.254 24.744 178.906 24.348C178.57 23.952 178.402 23.43 178.402 22.782C178.402 22.254 178.558 21.774 178.87 21.342C179.182 20.898 179.626 20.55 180.202 20.298C180.79 20.046 181.462 19.92 182.218 19.92C183.346 19.92 184.252 20.208 184.936 20.784C185.632 21.348 186.004 22.122 186.052 23.106H184C183.964 22.662 183.784 22.308 183.46 22.044C183.136 21.78 182.698 21.648 182.146 21.648C181.606 21.648 181.192 21.75 180.904 21.954C180.616 22.158 180.472 22.428 180.472 22.764C180.472 23.028 180.568 23.25 180.76 23.43C180.952 23.61 181.186 23.754 181.462 23.862C181.738 23.958 182.146 24.084 182.686 24.24C183.406 24.432 183.994 24.63 184.45 24.834C184.918 25.026 185.32 25.314 185.656 25.698C185.992 26.082 186.166 26.592 186.178 27.228C186.178 27.792 186.022 28.296 185.71 28.74C185.398 29.184 184.954 29.532 184.378 29.784C183.814 30.036 183.148 30.162 182.38 30.162Z" fill="#FF8B7A"/>
<rect x="0.5" y="0.5" width="207" height="47" rx="23.5" stroke="#FFD1CA"/>
</svg>
