<svg width="221" height="48" viewBox="0 0 221 48" fill="none" xmlns="http://www.w3.org/2000/svg">
<rect x="0.5" y="0.5" width="220" height="47" rx="23.5" fill="#FFF8EE"/>
<path d="M23.384 17.49V25.464C23.384 26.412 23.63 27.126 24.122 27.606C24.626 28.086 25.322 28.326 26.21 28.326C27.11 28.326 27.806 28.086 28.298 27.606C28.802 27.126 29.054 26.412 29.054 25.464V17.49H31.106V25.428C31.106 26.448 30.884 27.312 30.44 28.02C29.996 28.728 29.402 29.256 28.658 29.604C27.914 29.952 27.092 30.126 26.192 30.126C25.292 30.126 24.47 29.952 23.726 29.604C22.994 29.256 22.412 28.728 21.98 28.02C21.548 27.312 21.332 26.448 21.332 25.428V17.49H23.384ZM38.7817 19.92C39.5617 19.92 40.2577 20.082 40.8697 20.406C41.4937 20.73 41.9797 21.21 42.3277 21.846C42.6757 22.482 42.8497 23.25 42.8497 24.15V30H40.8157V24.456C40.8157 23.568 40.5937 22.89 40.1497 22.422C39.7057 21.942 39.0997 21.702 38.3317 21.702C37.5637 21.702 36.9517 21.942 36.4957 22.422C36.0517 22.89 35.8297 23.568 35.8297 24.456V30H33.7777V20.082H35.8297V21.216C36.1657 20.808 36.5917 20.49 37.1077 20.262C37.6357 20.034 38.1937 19.92 38.7817 19.92ZM47.5192 16.68V30H45.4672V16.68H47.5192ZM51.2573 18.768C50.8853 18.768 50.5733 18.642 50.3213 18.39C50.0693 18.138 49.9433 17.826 49.9433 17.454C49.9433 17.082 50.0693 16.77 50.3213 16.518C50.5733 16.266 50.8853 16.14 51.2573 16.14C51.6173 16.14 51.9233 16.266 52.1753 16.518C52.4273 16.77 52.5533 17.082 52.5533 17.454C52.5533 17.826 52.4273 18.138 52.1753 18.39C51.9233 18.642 51.6173 18.768 51.2573 18.768ZM52.2653 20.082V30H50.2133V20.082H52.2653ZM66.9654 19.92C67.7454 19.92 68.4414 20.082 69.0534 20.406C69.6774 20.73 70.1634 21.21 70.5114 21.846C70.8714 22.482 71.0514 23.25 71.0514 24.15V30H69.0174V24.456C69.0174 23.568 68.7954 22.89 68.3514 22.422C67.9074 21.942 67.3014 21.702 66.5334 21.702C65.7654 21.702 65.1534 21.942 64.6974 22.422C64.2534 22.89 64.0314 23.568 64.0314 24.456V30H61.9974V24.456C61.9974 23.568 61.7754 22.89 61.3314 22.422C60.8874 21.942 60.2814 21.702 59.5134 21.702C58.7454 21.702 58.1334 21.942 57.6774 22.422C57.2334 22.89 57.0114 23.568 57.0114 24.456V30H54.9594V20.082H57.0114V21.216C57.3474 20.808 57.7734 20.49 58.2894 20.262C58.8054 20.034 59.3574 19.92 59.9454 19.92C60.7374 19.92 61.4454 20.088 62.0694 20.424C62.6934 20.76 63.1734 21.246 63.5094 21.882C63.8094 21.282 64.2774 20.808 64.9134 20.46C65.5494 20.1 66.2334 19.92 66.9654 19.92ZM74.7065 18.768C74.3345 18.768 74.0225 18.642 73.7705 18.39C73.5185 18.138 73.3925 17.826 73.3925 17.454C73.3925 17.082 73.5185 16.77 73.7705 16.518C74.0225 16.266 74.3345 16.14 74.7065 16.14C75.0665 16.14 75.3725 16.266 75.6245 16.518C75.8765 16.77 76.0025 17.082 76.0025 17.454C76.0025 17.826 75.8765 18.138 75.6245 18.39C75.3725 18.642 75.0665 18.768 74.7065 18.768ZM75.7145 20.082V30H73.6625V20.082H75.7145ZM80.8026 21.756V27.246C80.8026 27.618 80.8866 27.888 81.0546 28.056C81.2346 28.212 81.5346 28.29 81.9546 28.29H83.2146V30H81.5946C80.6706 30 79.9626 29.784 79.4706 29.352C78.9786 28.92 78.7326 28.218 78.7326 27.246V21.756H77.5626V20.082H78.7326V17.616H80.8026V20.082H83.2146V21.756H80.8026ZM94.1959 24.798C94.1959 25.17 94.1719 25.506 94.1239 25.806H86.5459C86.6059 26.598 86.8999 27.234 87.4279 27.714C87.9559 28.194 88.6039 28.434 89.3719 28.434C90.4759 28.434 91.2559 27.972 91.7119 27.048H93.9259C93.6259 27.96 93.0799 28.71 92.2879 29.298C91.5079 29.874 90.5359 30.162 89.3719 30.162C88.4239 30.162 87.5719 29.952 86.8159 29.532C86.0719 29.1 85.4839 28.5 85.0519 27.732C84.6319 26.952 84.4219 26.052 84.4219 25.032C84.4219 24.012 84.6259 23.118 85.0339 22.35C85.4539 21.57 86.0359 20.97 86.7799 20.55C87.5359 20.13 88.3999 19.92 89.3719 19.92C90.3079 19.92 91.1419 20.124 91.8739 20.532C92.6059 20.94 93.1759 21.516 93.5839 22.26C93.9919 22.992 94.1959 23.838 94.1959 24.798ZM92.0539 24.15C92.0419 23.394 91.7719 22.788 91.2439 22.332C90.7159 21.876 90.0619 21.648 89.2819 21.648C88.5739 21.648 87.9679 21.876 87.4639 22.332C86.9599 22.776 86.6599 23.382 86.5639 24.15H92.0539ZM95.5312 24.996C95.5312 24 95.7352 23.118 96.1432 22.35C96.5632 21.582 97.1272 20.988 97.8352 20.568C98.5552 20.136 99.3532 19.92 100.229 19.92C100.877 19.92 101.513 20.064 102.137 20.352C102.773 20.628 103.277 21 103.649 21.468V16.68H105.719V30H103.649V28.506C103.313 28.986 102.845 29.382 102.245 29.694C101.657 30.006 100.979 30.162 100.211 30.162C99.3472 30.162 98.5552 29.946 97.8352 29.514C97.1272 29.07 96.5632 28.458 96.1432 27.678C95.7352 26.886 95.5312 25.992 95.5312 24.996ZM103.649 25.032C103.649 24.348 103.505 23.754 103.217 23.25C102.941 22.746 102.575 22.362 102.119 22.098C101.663 21.834 101.171 21.702 100.643 21.702C100.115 21.702 99.6232 21.834 99.1672 22.098C98.7112 22.35 98.3392 22.728 98.0512 23.232C97.7752 23.724 97.6372 24.312 97.6372 24.996C97.6372 25.68 97.7752 26.28 98.0512 26.796C98.3392 27.312 98.7112 27.708 99.1672 27.984C99.6352 28.248 100.127 28.38 100.643 28.38C101.171 28.38 101.663 28.248 102.119 27.984C102.575 27.72 102.941 27.336 103.217 26.832C103.505 26.316 103.649 25.716 103.649 25.032ZM125.096 19.92C125.876 19.92 126.572 20.082 127.184 20.406C127.808 20.73 128.294 21.21 128.642 21.846C129.002 22.482 129.182 23.25 129.182 24.15V30H127.148V24.456C127.148 23.568 126.926 22.89 126.482 22.422C126.038 21.942 125.432 21.702 124.664 21.702C123.896 21.702 123.284 21.942 122.828 22.422C122.384 22.89 122.162 23.568 122.162 24.456V30H120.128V24.456C120.128 23.568 119.906 22.89 119.462 22.422C119.018 21.942 118.412 21.702 117.644 21.702C116.876 21.702 116.264 21.942 115.808 22.422C115.364 22.89 115.142 23.568 115.142 24.456V30H113.09V20.082H115.142V21.216C115.478 20.808 115.904 20.49 116.42 20.262C116.936 20.034 117.488 19.92 118.076 19.92C118.868 19.92 119.576 20.088 120.2 20.424C120.824 20.76 121.304 21.246 121.64 21.882C121.94 21.282 122.408 20.808 123.044 20.46C123.68 20.1 124.364 19.92 125.096 19.92ZM140.883 24.798C140.883 25.17 140.859 25.506 140.811 25.806H133.233C133.293 26.598 133.587 27.234 134.115 27.714C134.643 28.194 135.291 28.434 136.059 28.434C137.163 28.434 137.943 27.972 138.399 27.048H140.613C140.313 27.96 139.767 28.71 138.975 29.298C138.195 29.874 137.223 30.162 136.059 30.162C135.111 30.162 134.259 29.952 133.503 29.532C132.759 29.1 132.171 28.5 131.739 27.732C131.319 26.952 131.109 26.052 131.109 25.032C131.109 24.012 131.313 23.118 131.721 22.35C132.141 21.57 132.723 20.97 133.467 20.55C134.223 20.13 135.087 19.92 136.059 19.92C136.995 19.92 137.829 20.124 138.561 20.532C139.293 20.94 139.863 21.516 140.271 22.26C140.679 22.992 140.883 23.838 140.883 24.798ZM138.741 24.15C138.729 23.394 138.459 22.788 137.931 22.332C137.403 21.876 136.749 21.648 135.969 21.648C135.261 21.648 134.655 21.876 134.151 22.332C133.647 22.776 133.347 23.382 133.251 24.15H138.741ZM154.909 19.92C155.689 19.92 156.385 20.082 156.997 20.406C157.621 20.73 158.107 21.21 158.455 21.846C158.815 22.482 158.995 23.25 158.995 24.15V30H156.961V24.456C156.961 23.568 156.739 22.89 156.295 22.422C155.851 21.942 155.245 21.702 154.477 21.702C153.709 21.702 153.097 21.942 152.641 22.422C152.197 22.89 151.975 23.568 151.975 24.456V30H149.941V24.456C149.941 23.568 149.719 22.89 149.275 22.422C148.831 21.942 148.225 21.702 147.457 21.702C146.689 21.702 146.077 21.942 145.621 22.422C145.177 22.89 144.955 23.568 144.955 24.456V30H142.903V20.082H144.955V21.216C145.291 20.808 145.717 20.49 146.233 20.262C146.749 20.034 147.301 19.92 147.889 19.92C148.681 19.92 149.389 20.088 150.013 20.424C150.637 20.76 151.117 21.246 151.453 21.882C151.753 21.282 152.221 20.808 152.857 20.46C153.493 20.1 154.177 19.92 154.909 19.92ZM163.658 21.558C164.006 21.078 164.48 20.688 165.08 20.388C165.692 20.076 166.37 19.92 167.114 19.92C167.99 19.92 168.782 20.13 169.49 20.55C170.198 20.97 170.756 21.57 171.164 22.35C171.572 23.118 171.776 24 171.776 24.996C171.776 25.992 171.572 26.886 171.164 27.678C170.756 28.458 170.192 29.07 169.472 29.514C168.764 29.946 167.978 30.162 167.114 30.162C166.346 30.162 165.662 30.012 165.062 29.712C164.474 29.412 164.006 29.028 163.658 28.56V30H161.606V16.68H163.658V21.558ZM169.688 24.996C169.688 24.312 169.544 23.724 169.256 23.232C168.98 22.728 168.608 22.35 168.14 22.098C167.684 21.834 167.192 21.702 166.664 21.702C166.148 21.702 165.656 21.834 165.188 22.098C164.732 22.362 164.36 22.746 164.072 23.25C163.796 23.754 163.658 24.348 163.658 25.032C163.658 25.716 163.796 26.316 164.072 26.832C164.36 27.336 164.732 27.72 165.188 27.984C165.656 28.248 166.148 28.38 166.664 28.38C167.192 28.38 167.684 28.248 168.14 27.984C168.608 27.708 168.98 27.312 169.256 26.796C169.544 26.28 169.688 25.68 169.688 24.996ZM182.895 24.798C182.895 25.17 182.871 25.506 182.823 25.806H175.245C175.305 26.598 175.599 27.234 176.127 27.714C176.655 28.194 177.303 28.434 178.071 28.434C179.175 28.434 179.955 27.972 180.411 27.048H182.625C182.325 27.96 181.779 28.71 180.987 29.298C180.207 29.874 179.235 30.162 178.071 30.162C177.123 30.162 176.271 29.952 175.515 29.532C174.771 29.1 174.183 28.5 173.751 27.732C173.331 26.952 173.121 26.052 173.121 25.032C173.121 24.012 173.325 23.118 173.733 22.35C174.153 21.57 174.735 20.97 175.479 20.55C176.235 20.13 177.099 19.92 178.071 19.92C179.007 19.92 179.841 20.124 180.573 20.532C181.305 20.94 181.875 21.516 182.283 22.26C182.691 22.992 182.895 23.838 182.895 24.798ZM180.753 24.15C180.741 23.394 180.471 22.788 179.943 22.332C179.415 21.876 178.761 21.648 177.981 21.648C177.273 21.648 176.667 21.876 176.163 22.332C175.659 22.776 175.359 23.382 175.263 24.15H180.753ZM186.966 21.522C187.266 21.018 187.662 20.628 188.154 20.352C188.658 20.064 189.252 19.92 189.936 19.92V22.044H189.414C188.61 22.044 187.998 22.248 187.578 22.656C187.17 23.064 186.966 23.772 186.966 24.78V30H184.914V20.082H186.966V21.522ZM195.423 30.162C194.643 30.162 193.941 30.024 193.317 29.748C192.705 29.46 192.219 29.076 191.859 28.596C191.499 28.104 191.307 27.558 191.283 26.958H193.407C193.443 27.378 193.641 27.732 194.001 28.02C194.373 28.296 194.835 28.434 195.387 28.434C195.963 28.434 196.407 28.326 196.719 28.11C197.043 27.882 197.205 27.594 197.205 27.246C197.205 26.874 197.025 26.598 196.665 26.418C196.317 26.238 195.759 26.04 194.991 25.824C194.247 25.62 193.641 25.422 193.173 25.23C192.705 25.038 192.297 24.744 191.949 24.348C191.613 23.952 191.445 23.43 191.445 22.782C191.445 22.254 191.601 21.774 191.913 21.342C192.225 20.898 192.669 20.55 193.245 20.298C193.833 20.046 194.505 19.92 195.261 19.92C196.389 19.92 197.295 20.208 197.979 20.784C198.675 21.348 199.047 22.122 199.095 23.106H197.043C197.007 22.662 196.827 22.308 196.503 22.044C196.179 21.78 195.741 21.648 195.189 21.648C194.649 21.648 194.235 21.75 193.947 21.954C193.659 22.158 193.515 22.428 193.515 22.764C193.515 23.028 193.611 23.25 193.803 23.43C193.995 23.61 194.229 23.754 194.505 23.862C194.781 23.958 195.189 24.084 195.729 24.24C196.449 24.432 197.037 24.63 197.493 24.834C197.961 25.026 198.363 25.314 198.699 25.698C199.035 26.082 199.209 26.592 199.221 27.228C199.221 27.792 199.065 28.296 198.753 28.74C198.441 29.184 197.997 29.532 197.421 29.784C196.857 30.036 196.191 30.162 195.423 30.162Z" fill="#FFAC2F"/>
<rect x="0.5" y="0.5" width="220" height="47" rx="23.5" stroke="#FFCA7A"/>
</svg>
