<svg width="222" height="48" viewBox="0 0 222 48" fill="none" xmlns="http://www.w3.org/2000/svg">
<rect x="0.5" y="0.5" width="221" height="47" rx="23.5" fill="#ECFFF4"/>
<path d="M23.384 17.49V25.464C23.384 26.412 23.63 27.126 24.122 27.606C24.626 28.086 25.322 28.326 26.21 28.326C27.11 28.326 27.806 28.086 28.298 27.606C28.802 27.126 29.054 26.412 29.054 25.464V17.49H31.106V25.428C31.106 26.448 30.884 27.312 30.44 28.02C29.996 28.728 29.402 29.256 28.658 29.604C27.914 29.952 27.092 30.126 26.192 30.126C25.292 30.126 24.47 29.952 23.726 29.604C22.994 29.256 22.412 28.728 21.98 28.02C21.548 27.312 21.332 26.448 21.332 25.428V17.49H23.384ZM38.7817 19.92C39.5617 19.92 40.2577 20.082 40.8697 20.406C41.4937 20.73 41.9797 21.21 42.3277 21.846C42.6757 22.482 42.8497 23.25 42.8497 24.15V30H40.8157V24.456C40.8157 23.568 40.5937 22.89 40.1497 22.422C39.7057 21.942 39.0997 21.702 38.3317 21.702C37.5637 21.702 36.9517 21.942 36.4957 22.422C36.0517 22.89 35.8297 23.568 35.8297 24.456V30H33.7777V20.082H35.8297V21.216C36.1657 20.808 36.5917 20.49 37.1077 20.262C37.6357 20.034 38.1937 19.92 38.7817 19.92ZM47.5192 16.68V30H45.4672V16.68H47.5192ZM51.2573 18.768C50.8853 18.768 50.5733 18.642 50.3213 18.39C50.0693 18.138 49.9433 17.826 49.9433 17.454C49.9433 17.082 50.0693 16.77 50.3213 16.518C50.5733 16.266 50.8853 16.14 51.2573 16.14C51.6173 16.14 51.9233 16.266 52.1753 16.518C52.4273 16.77 52.5533 17.082 52.5533 17.454C52.5533 17.826 52.4273 18.138 52.1753 18.39C51.9233 18.642 51.6173 18.768 51.2573 18.768ZM52.2653 20.082V30H50.2133V20.082H52.2653ZM66.9654 19.92C67.7454 19.92 68.4414 20.082 69.0534 20.406C69.6774 20.73 70.1634 21.21 70.5114 21.846C70.8714 22.482 71.0514 23.25 71.0514 24.15V30H69.0174V24.456C69.0174 23.568 68.7954 22.89 68.3514 22.422C67.9074 21.942 67.3014 21.702 66.5334 21.702C65.7654 21.702 65.1534 21.942 64.6974 22.422C64.2534 22.89 64.0314 23.568 64.0314 24.456V30H61.9974V24.456C61.9974 23.568 61.7754 22.89 61.3314 22.422C60.8874 21.942 60.2814 21.702 59.5134 21.702C58.7454 21.702 58.1334 21.942 57.6774 22.422C57.2334 22.89 57.0114 23.568 57.0114 24.456V30H54.9594V20.082H57.0114V21.216C57.3474 20.808 57.7734 20.49 58.2894 20.262C58.8054 20.034 59.3574 19.92 59.9454 19.92C60.7374 19.92 61.4454 20.088 62.0694 20.424C62.6934 20.76 63.1734 21.246 63.5094 21.882C63.8094 21.282 64.2774 20.808 64.9134 20.46C65.5494 20.1 66.2334 19.92 66.9654 19.92ZM74.7065 18.768C74.3345 18.768 74.0225 18.642 73.7705 18.39C73.5185 18.138 73.3925 17.826 73.3925 17.454C73.3925 17.082 73.5185 16.77 73.7705 16.518C74.0225 16.266 74.3345 16.14 74.7065 16.14C75.0665 16.14 75.3725 16.266 75.6245 16.518C75.8765 16.77 76.0025 17.082 76.0025 17.454C76.0025 17.826 75.8765 18.138 75.6245 18.39C75.3725 18.642 75.0665 18.768 74.7065 18.768ZM75.7145 20.082V30H73.6625V20.082H75.7145ZM80.8026 21.756V27.246C80.8026 27.618 80.8866 27.888 81.0546 28.056C81.2346 28.212 81.5346 28.29 81.9546 28.29H83.2146V30H81.5946C80.6706 30 79.9626 29.784 79.4706 29.352C78.9786 28.92 78.7326 28.218 78.7326 27.246V21.756H77.5626V20.082H78.7326V17.616H80.8026V20.082H83.2146V21.756H80.8026ZM94.1959 24.798C94.1959 25.17 94.1719 25.506 94.1239 25.806H86.5459C86.6059 26.598 86.8999 27.234 87.4279 27.714C87.9559 28.194 88.6039 28.434 89.3719 28.434C90.4759 28.434 91.2559 27.972 91.7119 27.048H93.9259C93.6259 27.96 93.0799 28.71 92.2879 29.298C91.5079 29.874 90.5359 30.162 89.3719 30.162C88.4239 30.162 87.5719 29.952 86.8159 29.532C86.0719 29.1 85.4839 28.5 85.0519 27.732C84.6319 26.952 84.4219 26.052 84.4219 25.032C84.4219 24.012 84.6259 23.118 85.0339 22.35C85.4539 21.57 86.0359 20.97 86.7799 20.55C87.5359 20.13 88.3999 19.92 89.3719 19.92C90.3079 19.92 91.1419 20.124 91.8739 20.532C92.6059 20.94 93.1759 21.516 93.5839 22.26C93.9919 22.992 94.1959 23.838 94.1959 24.798ZM92.0539 24.15C92.0419 23.394 91.7719 22.788 91.2439 22.332C90.7159 21.876 90.0619 21.648 89.2819 21.648C88.5739 21.648 87.9679 21.876 87.4639 22.332C86.9599 22.776 86.6599 23.382 86.5639 24.15H92.0539ZM95.5312 24.996C95.5312 24 95.7352 23.118 96.1432 22.35C96.5632 21.582 97.1272 20.988 97.8352 20.568C98.5552 20.136 99.3532 19.92 100.229 19.92C100.877 19.92 101.513 20.064 102.137 20.352C102.773 20.628 103.277 21 103.649 21.468V16.68H105.719V30H103.649V28.506C103.313 28.986 102.845 29.382 102.245 29.694C101.657 30.006 100.979 30.162 100.211 30.162C99.3472 30.162 98.5552 29.946 97.8352 29.514C97.1272 29.07 96.5632 28.458 96.1432 27.678C95.7352 26.886 95.5312 25.992 95.5312 24.996ZM103.649 25.032C103.649 24.348 103.505 23.754 103.217 23.25C102.941 22.746 102.575 22.362 102.119 22.098C101.663 21.834 101.171 21.702 100.643 21.702C100.115 21.702 99.6232 21.834 99.1672 22.098C98.7112 22.35 98.3392 22.728 98.0512 23.232C97.7752 23.724 97.6372 24.312 97.6372 24.996C97.6372 25.68 97.7752 26.28 98.0512 26.796C98.3392 27.312 98.7112 27.708 99.1672 27.984C99.6352 28.248 100.127 28.38 100.643 28.38C101.171 28.38 101.663 28.248 102.119 27.984C102.575 27.72 102.941 27.336 103.217 26.832C103.505 26.316 103.649 25.716 103.649 25.032ZM126.41 20.082L123.332 30H121.172L119.174 22.674L117.176 30H115.016L111.92 20.082H114.008L116.078 28.056L118.184 20.082H120.326L122.342 28.02L124.394 20.082H126.41ZM132.246 30.162C131.31 30.162 130.464 29.952 129.708 29.532C128.952 29.1 128.358 28.5 127.926 27.732C127.494 26.952 127.278 26.052 127.278 25.032C127.278 24.024 127.5 23.13 127.944 22.35C128.388 21.57 128.994 20.97 129.762 20.55C130.53 20.13 131.388 19.92 132.336 19.92C133.284 19.92 134.142 20.13 134.91 20.55C135.678 20.97 136.284 21.57 136.728 22.35C137.172 23.13 137.394 24.024 137.394 25.032C137.394 26.04 137.166 26.934 136.71 27.714C136.254 28.494 135.63 29.1 134.838 29.532C134.058 29.952 133.194 30.162 132.246 30.162ZM132.246 28.38C132.774 28.38 133.266 28.254 133.722 28.002C134.19 27.75 134.568 27.372 134.856 26.868C135.144 26.364 135.288 25.752 135.288 25.032C135.288 24.312 135.15 23.706 134.874 23.214C134.598 22.71 134.232 22.332 133.776 22.08C133.32 21.828 132.828 21.702 132.3 21.702C131.772 21.702 131.28 21.828 130.824 22.08C130.38 22.332 130.026 22.71 129.762 23.214C129.498 23.706 129.366 24.312 129.366 25.032C129.366 26.1 129.636 26.928 130.176 27.516C130.728 28.092 131.418 28.38 132.246 28.38ZM141.474 21.522C141.774 21.018 142.17 20.628 142.662 20.352C143.166 20.064 143.76 19.92 144.444 19.92V22.044H143.922C143.118 22.044 142.506 22.248 142.086 22.656C141.678 23.064 141.474 23.772 141.474 24.78V30H139.422V20.082H141.474V21.522ZM150.254 25.05L154.826 30H152.054L148.382 25.734V30H146.33V16.68H148.382V24.42L151.982 20.082H154.826L150.254 25.05ZM160.455 21.756H158.619V30H156.549V21.756H155.379V20.082H156.549V19.38C156.549 18.24 156.849 17.412 157.449 16.896C158.061 16.368 159.015 16.104 160.311 16.104V17.814C159.687 17.814 159.249 17.934 158.997 18.174C158.745 18.402 158.619 18.804 158.619 19.38V20.082H160.455V21.756ZM164.326 16.68V30H162.274V16.68H164.326ZM171.322 30.162C170.386 30.162 169.54 29.952 168.784 29.532C168.028 29.1 167.434 28.5 167.002 27.732C166.57 26.952 166.354 26.052 166.354 25.032C166.354 24.024 166.576 23.13 167.02 22.35C167.464 21.57 168.07 20.97 168.838 20.55C169.606 20.13 170.464 19.92 171.412 19.92C172.36 19.92 173.218 20.13 173.986 20.55C174.754 20.97 175.36 21.57 175.804 22.35C176.248 23.13 176.47 24.024 176.47 25.032C176.47 26.04 176.242 26.934 175.786 27.714C175.33 28.494 174.706 29.1 173.914 29.532C173.134 29.952 172.27 30.162 171.322 30.162ZM171.322 28.38C171.85 28.38 172.342 28.254 172.798 28.002C173.266 27.75 173.644 27.372 173.932 26.868C174.22 26.364 174.364 25.752 174.364 25.032C174.364 24.312 174.226 23.706 173.95 23.214C173.674 22.71 173.308 22.332 172.852 22.08C172.396 21.828 171.904 21.702 171.376 21.702C170.848 21.702 170.356 21.828 169.9 22.08C169.456 22.332 169.102 22.71 168.838 23.214C168.574 23.706 168.442 24.312 168.442 25.032C168.442 26.1 168.712 26.928 169.252 27.516C169.804 28.092 170.494 28.38 171.322 28.38ZM191.818 20.082L188.74 30H186.58L184.582 22.674L182.584 30H180.424L177.328 20.082H179.416L181.486 28.056L183.592 20.082H185.734L187.75 28.02L189.802 20.082H191.818ZM196.952 30.162C196.172 30.162 195.47 30.024 194.846 29.748C194.234 29.46 193.748 29.076 193.388 28.596C193.028 28.104 192.836 27.558 192.812 26.958H194.936C194.972 27.378 195.17 27.732 195.53 28.02C195.902 28.296 196.364 28.434 196.916 28.434C197.492 28.434 197.936 28.326 198.248 28.11C198.572 27.882 198.734 27.594 198.734 27.246C198.734 26.874 198.554 26.598 198.194 26.418C197.846 26.238 197.288 26.04 196.52 25.824C195.776 25.62 195.17 25.422 194.702 25.23C194.234 25.038 193.826 24.744 193.478 24.348C193.142 23.952 192.974 23.43 192.974 22.782C192.974 22.254 193.13 21.774 193.442 21.342C193.754 20.898 194.198 20.55 194.774 20.298C195.362 20.046 196.034 19.92 196.79 19.92C197.918 19.92 198.824 20.208 199.508 20.784C200.204 21.348 200.576 22.122 200.624 23.106H198.572C198.536 22.662 198.356 22.308 198.032 22.044C197.708 21.78 197.27 21.648 196.718 21.648C196.178 21.648 195.764 21.75 195.476 21.954C195.188 22.158 195.044 22.428 195.044 22.764C195.044 23.028 195.14 23.25 195.332 23.43C195.524 23.61 195.758 23.754 196.034 23.862C196.31 23.958 196.718 24.084 197.258 24.24C197.978 24.432 198.566 24.63 199.022 24.834C199.49 25.026 199.892 25.314 200.228 25.698C200.564 26.082 200.738 26.592 200.75 27.228C200.75 27.792 200.594 28.296 200.282 28.74C199.97 29.184 199.526 29.532 198.95 29.784C198.386 30.036 197.72 30.162 196.952 30.162Z" fill="#3ACD77"/>
<rect x="0.5" y="0.5" width="221" height="47" rx="23.5" stroke="#98FAC0"/>
</svg>
