<svg width="224" height="48" viewBox="0 0 224 48" fill="none" xmlns="http://www.w3.org/2000/svg">
<rect x="0.5" y="0.5" width="223" height="47" rx="23.5" fill="#F1FEFF"/>
<path d="M23.384 17.49V25.464C23.384 26.412 23.63 27.126 24.122 27.606C24.626 28.086 25.322 28.326 26.21 28.326C27.11 28.326 27.806 28.086 28.298 27.606C28.802 27.126 29.054 26.412 29.054 25.464V17.49H31.106V25.428C31.106 26.448 30.884 27.312 30.44 28.02C29.996 28.728 29.402 29.256 28.658 29.604C27.914 29.952 27.092 30.126 26.192 30.126C25.292 30.126 24.47 29.952 23.726 29.604C22.994 29.256 22.412 28.728 21.98 28.02C21.548 27.312 21.332 26.448 21.332 25.428V17.49H23.384ZM38.7817 19.92C39.5617 19.92 40.2577 20.082 40.8697 20.406C41.4937 20.73 41.9797 21.21 42.3277 21.846C42.6757 22.482 42.8497 23.25 42.8497 24.15V30H40.8157V24.456C40.8157 23.568 40.5937 22.89 40.1497 22.422C39.7057 21.942 39.0997 21.702 38.3317 21.702C37.5637 21.702 36.9517 21.942 36.4957 22.422C36.0517 22.89 35.8297 23.568 35.8297 24.456V30H33.7777V20.082H35.8297V21.216C36.1657 20.808 36.5917 20.49 37.1077 20.262C37.6357 20.034 38.1937 19.92 38.7817 19.92ZM47.5192 16.68V30H45.4672V16.68H47.5192ZM51.2573 18.768C50.8853 18.768 50.5733 18.642 50.3213 18.39C50.0693 18.138 49.9433 17.826 49.9433 17.454C49.9433 17.082 50.0693 16.77 50.3213 16.518C50.5733 16.266 50.8853 16.14 51.2573 16.14C51.6173 16.14 51.9233 16.266 52.1753 16.518C52.4273 16.77 52.5533 17.082 52.5533 17.454C52.5533 17.826 52.4273 18.138 52.1753 18.39C51.9233 18.642 51.6173 18.768 51.2573 18.768ZM52.2653 20.082V30H50.2133V20.082H52.2653ZM66.9654 19.92C67.7454 19.92 68.4414 20.082 69.0534 20.406C69.6774 20.73 70.1634 21.21 70.5114 21.846C70.8714 22.482 71.0514 23.25 71.0514 24.15V30H69.0174V24.456C69.0174 23.568 68.7954 22.89 68.3514 22.422C67.9074 21.942 67.3014 21.702 66.5334 21.702C65.7654 21.702 65.1534 21.942 64.6974 22.422C64.2534 22.89 64.0314 23.568 64.0314 24.456V30H61.9974V24.456C61.9974 23.568 61.7754 22.89 61.3314 22.422C60.8874 21.942 60.2814 21.702 59.5134 21.702C58.7454 21.702 58.1334 21.942 57.6774 22.422C57.2334 22.89 57.0114 23.568 57.0114 24.456V30H54.9594V20.082H57.0114V21.216C57.3474 20.808 57.7734 20.49 58.2894 20.262C58.8054 20.034 59.3574 19.92 59.9454 19.92C60.7374 19.92 61.4454 20.088 62.0694 20.424C62.6934 20.76 63.1734 21.246 63.5094 21.882C63.8094 21.282 64.2774 20.808 64.9134 20.46C65.5494 20.1 66.2334 19.92 66.9654 19.92ZM74.7065 18.768C74.3345 18.768 74.0225 18.642 73.7705 18.39C73.5185 18.138 73.3925 17.826 73.3925 17.454C73.3925 17.082 73.5185 16.77 73.7705 16.518C74.0225 16.266 74.3345 16.14 74.7065 16.14C75.0665 16.14 75.3725 16.266 75.6245 16.518C75.8765 16.77 76.0025 17.082 76.0025 17.454C76.0025 17.826 75.8765 18.138 75.6245 18.39C75.3725 18.642 75.0665 18.768 74.7065 18.768ZM75.7145 20.082V30H73.6625V20.082H75.7145ZM80.8026 21.756V27.246C80.8026 27.618 80.8866 27.888 81.0546 28.056C81.2346 28.212 81.5346 28.29 81.9546 28.29H83.2146V30H81.5946C80.6706 30 79.9626 29.784 79.4706 29.352C78.9786 28.92 78.7326 28.218 78.7326 27.246V21.756H77.5626V20.082H78.7326V17.616H80.8026V20.082H83.2146V21.756H80.8026ZM94.1959 24.798C94.1959 25.17 94.1719 25.506 94.1239 25.806H86.5459C86.6059 26.598 86.8999 27.234 87.4279 27.714C87.9559 28.194 88.6039 28.434 89.3719 28.434C90.4759 28.434 91.2559 27.972 91.7119 27.048H93.9259C93.6259 27.96 93.0799 28.71 92.2879 29.298C91.5079 29.874 90.5359 30.162 89.3719 30.162C88.4239 30.162 87.5719 29.952 86.8159 29.532C86.0719 29.1 85.4839 28.5 85.0519 27.732C84.6319 26.952 84.4219 26.052 84.4219 25.032C84.4219 24.012 84.6259 23.118 85.0339 22.35C85.4539 21.57 86.0359 20.97 86.7799 20.55C87.5359 20.13 88.3999 19.92 89.3719 19.92C90.3079 19.92 91.1419 20.124 91.8739 20.532C92.6059 20.94 93.1759 21.516 93.5839 22.26C93.9919 22.992 94.1959 23.838 94.1959 24.798ZM92.0539 24.15C92.0419 23.394 91.7719 22.788 91.2439 22.332C90.7159 21.876 90.0619 21.648 89.2819 21.648C88.5739 21.648 87.9679 21.876 87.4639 22.332C86.9599 22.776 86.6599 23.382 86.5639 24.15H92.0539ZM95.5312 24.996C95.5312 24 95.7352 23.118 96.1432 22.35C96.5632 21.582 97.1272 20.988 97.8352 20.568C98.5552 20.136 99.3532 19.92 100.229 19.92C100.877 19.92 101.513 20.064 102.137 20.352C102.773 20.628 103.277 21 103.649 21.468V16.68H105.719V30H103.649V28.506C103.313 28.986 102.845 29.382 102.245 29.694C101.657 30.006 100.979 30.162 100.211 30.162C99.3472 30.162 98.5552 29.946 97.8352 29.514C97.1272 29.07 96.5632 28.458 96.1432 27.678C95.7352 26.886 95.5312 25.992 95.5312 24.996ZM103.649 25.032C103.649 24.348 103.505 23.754 103.217 23.25C102.941 22.746 102.575 22.362 102.119 22.098C101.663 21.834 101.171 21.702 100.643 21.702C100.115 21.702 99.6232 21.834 99.1672 22.098C98.7112 22.35 98.3392 22.728 98.0512 23.232C97.7752 23.724 97.6372 24.312 97.6372 24.996C97.6372 25.68 97.7752 26.28 98.0512 26.796C98.3392 27.312 98.7112 27.708 99.1672 27.984C99.6352 28.248 100.127 28.38 100.643 28.38C101.171 28.38 101.663 28.248 102.119 27.984C102.575 27.72 102.941 27.336 103.217 26.832C103.505 26.316 103.649 25.716 103.649 25.032ZM112.406 25.032C112.406 24.012 112.61 23.118 113.018 22.35C113.438 21.57 114.014 20.97 114.746 20.55C115.478 20.13 116.318 19.92 117.266 19.92C118.466 19.92 119.456 20.208 120.236 20.784C121.028 21.348 121.562 22.158 121.838 23.214H119.624C119.444 22.722 119.156 22.338 118.76 22.062C118.364 21.786 117.866 21.648 117.266 21.648C116.426 21.648 115.754 21.948 115.25 22.548C114.758 23.136 114.512 23.964 114.512 25.032C114.512 26.1 114.758 26.934 115.25 27.534C115.754 28.134 116.426 28.434 117.266 28.434C118.454 28.434 119.24 27.912 119.624 26.868H121.838C121.55 27.876 121.01 28.68 120.218 29.28C119.426 29.868 118.442 30.162 117.266 30.162C116.318 30.162 115.478 29.952 114.746 29.532C114.014 29.1 113.438 28.5 113.018 27.732C112.61 26.952 112.406 26.052 112.406 25.032ZM123.199 24.996C123.199 24 123.403 23.118 123.811 22.35C124.231 21.582 124.795 20.988 125.503 20.568C126.223 20.136 127.015 19.92 127.879 19.92C128.659 19.92 129.337 20.076 129.913 20.388C130.501 20.688 130.969 21.066 131.317 21.522V20.082H133.387V30H131.317V28.524C130.969 28.992 130.495 29.382 129.895 29.694C129.295 30.006 128.611 30.162 127.843 30.162C126.991 30.162 126.211 29.946 125.503 29.514C124.795 29.07 124.231 28.458 123.811 27.678C123.403 26.886 123.199 25.992 123.199 24.996ZM131.317 25.032C131.317 24.348 131.173 23.754 130.885 23.25C130.609 22.746 130.243 22.362 129.787 22.098C129.331 21.834 128.839 21.702 128.311 21.702C127.783 21.702 127.291 21.834 126.835 22.098C126.379 22.35 126.007 22.728 125.719 23.232C125.443 23.724 125.305 24.312 125.305 24.996C125.305 25.68 125.443 26.28 125.719 26.796C126.007 27.312 126.379 27.708 126.835 27.984C127.303 28.248 127.795 28.38 128.311 28.38C128.839 28.38 129.331 28.248 129.787 27.984C130.243 27.72 130.609 27.336 130.885 26.832C131.173 26.316 131.317 25.716 131.317 25.032ZM138.134 16.68V30H136.082V16.68H138.134ZM149.919 24.798C149.919 25.17 149.895 25.506 149.847 25.806H142.269C142.329 26.598 142.623 27.234 143.151 27.714C143.679 28.194 144.327 28.434 145.095 28.434C146.199 28.434 146.979 27.972 147.435 27.048H149.649C149.349 27.96 148.803 28.71 148.011 29.298C147.231 29.874 146.259 30.162 145.095 30.162C144.147 30.162 143.295 29.952 142.539 29.532C141.795 29.1 141.207 28.5 140.775 27.732C140.355 26.952 140.145 26.052 140.145 25.032C140.145 24.012 140.349 23.118 140.757 22.35C141.177 21.57 141.759 20.97 142.503 20.55C143.259 20.13 144.123 19.92 145.095 19.92C146.031 19.92 146.865 20.124 147.597 20.532C148.329 20.94 148.899 21.516 149.307 22.26C149.715 22.992 149.919 23.838 149.919 24.798ZM147.777 24.15C147.765 23.394 147.495 22.788 146.967 22.332C146.439 21.876 145.785 21.648 145.005 21.648C144.297 21.648 143.691 21.876 143.187 22.332C142.683 22.776 142.383 23.382 142.287 24.15H147.777ZM156.942 19.92C157.722 19.92 158.418 20.082 159.03 20.406C159.654 20.73 160.14 21.21 160.488 21.846C160.836 22.482 161.01 23.25 161.01 24.15V30H158.976V24.456C158.976 23.568 158.754 22.89 158.31 22.422C157.866 21.942 157.26 21.702 156.492 21.702C155.724 21.702 155.112 21.942 154.656 22.422C154.212 22.89 153.99 23.568 153.99 24.456V30H151.938V20.082H153.99V21.216C154.326 20.808 154.752 20.49 155.268 20.262C155.796 20.034 156.354 19.92 156.942 19.92ZM162.943 24.996C162.943 24 163.147 23.118 163.555 22.35C163.975 21.582 164.539 20.988 165.247 20.568C165.967 20.136 166.765 19.92 167.641 19.92C168.289 19.92 168.925 20.064 169.549 20.352C170.185 20.628 170.689 21 171.061 21.468V16.68H173.131V30H171.061V28.506C170.725 28.986 170.257 29.382 169.657 29.694C169.069 30.006 168.391 30.162 167.623 30.162C166.759 30.162 165.967 29.946 165.247 29.514C164.539 29.07 163.975 28.458 163.555 27.678C163.147 26.886 162.943 25.992 162.943 24.996ZM171.061 25.032C171.061 24.348 170.917 23.754 170.629 23.25C170.353 22.746 169.987 22.362 169.531 22.098C169.075 21.834 168.583 21.702 168.055 21.702C167.527 21.702 167.035 21.834 166.579 22.098C166.123 22.35 165.751 22.728 165.463 23.232C165.187 23.724 165.049 24.312 165.049 24.996C165.049 25.68 165.187 26.28 165.463 26.796C165.751 27.312 166.123 27.708 166.579 27.984C167.047 28.248 167.539 28.38 168.055 28.38C168.583 28.38 169.075 28.248 169.531 27.984C169.987 27.72 170.353 27.336 170.629 26.832C170.917 26.316 171.061 25.716 171.061 25.032ZM175.143 24.996C175.143 24 175.347 23.118 175.755 22.35C176.175 21.582 176.739 20.988 177.447 20.568C178.167 20.136 178.959 19.92 179.823 19.92C180.603 19.92 181.281 20.076 181.857 20.388C182.445 20.688 182.913 21.066 183.261 21.522V20.082H185.331V30H183.261V28.524C182.913 28.992 182.439 29.382 181.839 29.694C181.239 30.006 180.555 30.162 179.787 30.162C178.935 30.162 178.155 29.946 177.447 29.514C176.739 29.07 176.175 28.458 175.755 27.678C175.347 26.886 175.143 25.992 175.143 24.996ZM183.261 25.032C183.261 24.348 183.117 23.754 182.829 23.25C182.553 22.746 182.187 22.362 181.731 22.098C181.275 21.834 180.783 21.702 180.255 21.702C179.727 21.702 179.235 21.834 178.779 22.098C178.323 22.35 177.951 22.728 177.663 23.232C177.387 23.724 177.249 24.312 177.249 24.996C177.249 25.68 177.387 26.28 177.663 26.796C177.951 27.312 178.323 27.708 178.779 27.984C179.247 28.248 179.739 28.38 180.255 28.38C180.783 28.38 181.275 28.248 181.731 27.984C182.187 27.72 182.553 27.336 182.829 26.832C183.117 26.316 183.261 25.716 183.261 25.032ZM190.078 21.522C190.378 21.018 190.774 20.628 191.266 20.352C191.77 20.064 192.364 19.92 193.048 19.92V22.044H192.526C191.722 22.044 191.11 22.248 190.69 22.656C190.282 23.064 190.078 23.772 190.078 24.78V30H188.026V20.082H190.078V21.522ZM198.534 30.162C197.754 30.162 197.052 30.024 196.428 29.748C195.816 29.46 195.33 29.076 194.97 28.596C194.61 28.104 194.418 27.558 194.394 26.958H196.518C196.554 27.378 196.752 27.732 197.112 28.02C197.484 28.296 197.946 28.434 198.498 28.434C199.074 28.434 199.518 28.326 199.83 28.11C200.154 27.882 200.316 27.594 200.316 27.246C200.316 26.874 200.136 26.598 199.776 26.418C199.428 26.238 198.87 26.04 198.102 25.824C197.358 25.62 196.752 25.422 196.284 25.23C195.816 25.038 195.408 24.744 195.06 24.348C194.724 23.952 194.556 23.43 194.556 22.782C194.556 22.254 194.712 21.774 195.024 21.342C195.336 20.898 195.78 20.55 196.356 20.298C196.944 20.046 197.616 19.92 198.372 19.92C199.5 19.92 200.406 20.208 201.09 20.784C201.786 21.348 202.158 22.122 202.206 23.106H200.154C200.118 22.662 199.938 22.308 199.614 22.044C199.29 21.78 198.852 21.648 198.3 21.648C197.76 21.648 197.346 21.75 197.058 21.954C196.77 22.158 196.626 22.428 196.626 22.764C196.626 23.028 196.722 23.25 196.914 23.43C197.106 23.61 197.34 23.754 197.616 23.862C197.892 23.958 198.3 24.084 198.84 24.24C199.56 24.432 200.148 24.63 200.604 24.834C201.072 25.026 201.474 25.314 201.81 25.698C202.146 26.082 202.32 26.592 202.332 27.228C202.332 27.792 202.176 28.296 201.864 28.74C201.552 29.184 201.108 29.532 200.532 29.784C199.968 30.036 199.302 30.162 198.534 30.162Z" fill="#2BC0CA"/>
<rect x="0.5" y="0.5" width="223" height="47" rx="23.5" stroke="#6EE1E9"/>
</svg>
