<svg width="216" height="56" viewBox="0 0 216 56" fill="none" xmlns="http://www.w3.org/2000/svg">
<g filter="url(#filter0_d_4_1759)">
<rect x="4.5" y="0.5" width="207" height="47" rx="23.5" fill="#FCF5FF"/>
<path d="M27.384 17.49V25.464C27.384 26.412 27.63 27.126 28.122 27.606C28.626 28.086 29.322 28.326 30.21 28.326C31.11 28.326 31.806 28.086 32.298 27.606C32.802 27.126 33.054 26.412 33.054 25.464V17.49H35.106V25.428C35.106 26.448 34.884 27.312 34.44 28.02C33.996 28.728 33.402 29.256 32.658 29.604C31.914 29.952 31.092 30.126 30.192 30.126C29.292 30.126 28.47 29.952 27.726 29.604C26.994 29.256 26.412 28.728 25.98 28.02C25.548 27.312 25.332 26.448 25.332 25.428V17.49H27.384ZM42.7817 19.92C43.5617 19.92 44.2577 20.082 44.8697 20.406C45.4937 20.73 45.9797 21.21 46.3277 21.846C46.6757 22.482 46.8497 23.25 46.8497 24.15V30H44.8157V24.456C44.8157 23.568 44.5937 22.89 44.1497 22.422C43.7057 21.942 43.0997 21.702 42.3317 21.702C41.5637 21.702 40.9517 21.942 40.4957 22.422C40.0517 22.89 39.8297 23.568 39.8297 24.456V30H37.7777V20.082H39.8297V21.216C40.1657 20.808 40.5917 20.49 41.1077 20.262C41.6357 20.034 42.1937 19.92 42.7817 19.92ZM51.5192 16.68V30H49.4672V16.68H51.5192ZM55.2573 18.768C54.8853 18.768 54.5733 18.642 54.3213 18.39C54.0693 18.138 53.9433 17.826 53.9433 17.454C53.9433 17.082 54.0693 16.77 54.3213 16.518C54.5733 16.266 54.8853 16.14 55.2573 16.14C55.6173 16.14 55.9233 16.266 56.1753 16.518C56.4273 16.77 56.5533 17.082 56.5533 17.454C56.5533 17.826 56.4273 18.138 56.1753 18.39C55.9233 18.642 55.6173 18.768 55.2573 18.768ZM56.2653 20.082V30H54.2133V20.082H56.2653ZM70.9654 19.92C71.7454 19.92 72.4414 20.082 73.0534 20.406C73.6774 20.73 74.1634 21.21 74.5114 21.846C74.8714 22.482 75.0514 23.25 75.0514 24.15V30H73.0174V24.456C73.0174 23.568 72.7954 22.89 72.3514 22.422C71.9074 21.942 71.3014 21.702 70.5334 21.702C69.7654 21.702 69.1534 21.942 68.6974 22.422C68.2534 22.89 68.0314 23.568 68.0314 24.456V30H65.9974V24.456C65.9974 23.568 65.7754 22.89 65.3314 22.422C64.8874 21.942 64.2814 21.702 63.5134 21.702C62.7454 21.702 62.1334 21.942 61.6774 22.422C61.2334 22.89 61.0114 23.568 61.0114 24.456V30H58.9594V20.082H61.0114V21.216C61.3474 20.808 61.7734 20.49 62.2894 20.262C62.8054 20.034 63.3574 19.92 63.9454 19.92C64.7374 19.92 65.4454 20.088 66.0694 20.424C66.6934 20.76 67.1734 21.246 67.5094 21.882C67.8094 21.282 68.2774 20.808 68.9134 20.46C69.5494 20.1 70.2334 19.92 70.9654 19.92ZM78.7065 18.768C78.3345 18.768 78.0225 18.642 77.7705 18.39C77.5185 18.138 77.3925 17.826 77.3925 17.454C77.3925 17.082 77.5185 16.77 77.7705 16.518C78.0225 16.266 78.3345 16.14 78.7065 16.14C79.0665 16.14 79.3725 16.266 79.6245 16.518C79.8765 16.77 80.0025 17.082 80.0025 17.454C80.0025 17.826 79.8765 18.138 79.6245 18.39C79.3725 18.642 79.0665 18.768 78.7065 18.768ZM79.7145 20.082V30H77.6625V20.082H79.7145ZM84.8026 21.756V27.246C84.8026 27.618 84.8866 27.888 85.0546 28.056C85.2346 28.212 85.5346 28.29 85.9546 28.29H87.2146V30H85.5946C84.6706 30 83.9626 29.784 83.4706 29.352C82.9786 28.92 82.7326 28.218 82.7326 27.246V21.756H81.5626V20.082H82.7326V17.616H84.8026V20.082H87.2146V21.756H84.8026ZM98.1959 24.798C98.1959 25.17 98.1719 25.506 98.1239 25.806H90.5459C90.6059 26.598 90.8999 27.234 91.4279 27.714C91.9559 28.194 92.6039 28.434 93.3719 28.434C94.4759 28.434 95.2559 27.972 95.7119 27.048H97.9259C97.6259 27.96 97.0799 28.71 96.2879 29.298C95.5079 29.874 94.5359 30.162 93.3719 30.162C92.4239 30.162 91.5719 29.952 90.8159 29.532C90.0719 29.1 89.4839 28.5 89.0519 27.732C88.6319 26.952 88.4219 26.052 88.4219 25.032C88.4219 24.012 88.6259 23.118 89.0339 22.35C89.4539 21.57 90.0359 20.97 90.7799 20.55C91.5359 20.13 92.3999 19.92 93.3719 19.92C94.3079 19.92 95.1419 20.124 95.8739 20.532C96.6059 20.94 97.1759 21.516 97.5839 22.26C97.9919 22.992 98.1959 23.838 98.1959 24.798ZM96.0539 24.15C96.0419 23.394 95.7719 22.788 95.2439 22.332C94.7159 21.876 94.0619 21.648 93.2819 21.648C92.5739 21.648 91.9679 21.876 91.4639 22.332C90.9599 22.776 90.6599 23.382 90.5639 24.15H96.0539ZM99.5312 24.996C99.5312 24 99.7352 23.118 100.143 22.35C100.563 21.582 101.127 20.988 101.835 20.568C102.555 20.136 103.353 19.92 104.229 19.92C104.877 19.92 105.513 20.064 106.137 20.352C106.773 20.628 107.277 21 107.649 21.468V16.68H109.719V30H107.649V28.506C107.313 28.986 106.845 29.382 106.245 29.694C105.657 30.006 104.979 30.162 104.211 30.162C103.347 30.162 102.555 29.946 101.835 29.514C101.127 29.07 100.563 28.458 100.143 27.678C99.7352 26.886 99.5312 25.992 99.5312 24.996ZM107.649 25.032C107.649 24.348 107.505 23.754 107.217 23.25C106.941 22.746 106.575 22.362 106.119 22.098C105.663 21.834 105.171 21.702 104.643 21.702C104.115 21.702 103.623 21.834 103.167 22.098C102.711 22.35 102.339 22.728 102.051 23.232C101.775 23.724 101.637 24.312 101.637 24.996C101.637 25.68 101.775 26.28 102.051 26.796C102.339 27.312 102.711 27.708 103.167 27.984C103.635 28.248 104.127 28.38 104.643 28.38C105.171 28.38 105.663 28.248 106.119 27.984C106.575 27.72 106.941 27.336 107.217 26.832C107.505 26.316 107.649 25.716 107.649 25.032ZM129.096 19.92C129.876 19.92 130.572 20.082 131.184 20.406C131.808 20.73 132.294 21.21 132.642 21.846C133.002 22.482 133.182 23.25 133.182 24.15V30H131.148V24.456C131.148 23.568 130.926 22.89 130.482 22.422C130.038 21.942 129.432 21.702 128.664 21.702C127.896 21.702 127.284 21.942 126.828 22.422C126.384 22.89 126.162 23.568 126.162 24.456V30H124.128V24.456C124.128 23.568 123.906 22.89 123.462 22.422C123.018 21.942 122.412 21.702 121.644 21.702C120.876 21.702 120.264 21.942 119.808 22.422C119.364 22.89 119.142 23.568 119.142 24.456V30H117.09V20.082H119.142V21.216C119.478 20.808 119.904 20.49 120.42 20.262C120.936 20.034 121.488 19.92 122.076 19.92C122.868 19.92 123.576 20.088 124.2 20.424C124.824 20.76 125.304 21.246 125.64 21.882C125.94 21.282 126.408 20.808 127.044 20.46C127.68 20.1 128.364 19.92 129.096 19.92ZM144.883 24.798C144.883 25.17 144.859 25.506 144.811 25.806H137.233C137.293 26.598 137.587 27.234 138.115 27.714C138.643 28.194 139.291 28.434 140.059 28.434C141.163 28.434 141.943 27.972 142.399 27.048H144.613C144.313 27.96 143.767 28.71 142.975 29.298C142.195 29.874 141.223 30.162 140.059 30.162C139.111 30.162 138.259 29.952 137.503 29.532C136.759 29.1 136.171 28.5 135.739 27.732C135.319 26.952 135.109 26.052 135.109 25.032C135.109 24.012 135.313 23.118 135.721 22.35C136.141 21.57 136.723 20.97 137.467 20.55C138.223 20.13 139.087 19.92 140.059 19.92C140.995 19.92 141.829 20.124 142.561 20.532C143.293 20.94 143.863 21.516 144.271 22.26C144.679 22.992 144.883 23.838 144.883 24.798ZM142.741 24.15C142.729 23.394 142.459 22.788 141.931 22.332C141.403 21.876 140.749 21.648 139.969 21.648C139.261 21.648 138.655 21.876 138.151 22.332C137.647 22.776 137.347 23.382 137.251 24.15H142.741ZM155.993 24.798C155.993 25.17 155.969 25.506 155.921 25.806H148.343C148.403 26.598 148.697 27.234 149.225 27.714C149.753 28.194 150.401 28.434 151.169 28.434C152.273 28.434 153.053 27.972 153.509 27.048H155.723C155.423 27.96 154.877 28.71 154.085 29.298C153.305 29.874 152.333 30.162 151.169 30.162C150.221 30.162 149.369 29.952 148.613 29.532C147.869 29.1 147.281 28.5 146.849 27.732C146.429 26.952 146.219 26.052 146.219 25.032C146.219 24.012 146.423 23.118 146.831 22.35C147.251 21.57 147.833 20.97 148.577 20.55C149.333 20.13 150.197 19.92 151.169 19.92C152.105 19.92 152.939 20.124 153.671 20.532C154.403 20.94 154.973 21.516 155.381 22.26C155.789 22.992 155.993 23.838 155.993 24.798ZM153.851 24.15C153.839 23.394 153.569 22.788 153.041 22.332C152.513 21.876 151.859 21.648 151.079 21.648C150.371 21.648 149.765 21.876 149.261 22.332C148.757 22.776 148.457 23.382 148.361 24.15H153.851ZM160.406 21.756V27.246C160.406 27.618 160.49 27.888 160.658 28.056C160.838 28.212 161.138 28.29 161.558 28.29H162.818V30H161.198C160.274 30 159.566 29.784 159.074 29.352C158.582 28.92 158.336 28.218 158.336 27.246V21.756H157.166V20.082H158.336V17.616H160.406V20.082H162.818V21.756H160.406ZM165.753 18.768C165.381 18.768 165.069 18.642 164.817 18.39C164.565 18.138 164.439 17.826 164.439 17.454C164.439 17.082 164.565 16.77 164.817 16.518C165.069 16.266 165.381 16.14 165.753 16.14C166.113 16.14 166.419 16.266 166.671 16.518C166.923 16.77 167.049 17.082 167.049 17.454C167.049 17.826 166.923 18.138 166.671 18.39C166.419 18.642 166.113 18.768 165.753 18.768ZM166.761 20.082V30H164.709V20.082H166.761ZM174.459 19.92C175.239 19.92 175.935 20.082 176.547 20.406C177.171 20.73 177.657 21.21 178.005 21.846C178.353 22.482 178.527 23.25 178.527 24.15V30H176.493V24.456C176.493 23.568 176.271 22.89 175.827 22.422C175.383 21.942 174.777 21.702 174.009 21.702C173.241 21.702 172.629 21.942 172.173 22.422C171.729 22.89 171.507 23.568 171.507 24.456V30H169.455V20.082H171.507V21.216C171.843 20.808 172.269 20.49 172.785 20.262C173.313 20.034 173.871 19.92 174.459 19.92ZM185.141 19.92C185.909 19.92 186.587 20.076 187.175 20.388C187.775 20.688 188.243 21.066 188.579 21.522V20.082H190.649V30.162C190.649 31.074 190.457 31.884 190.073 32.592C189.689 33.312 189.131 33.876 188.399 34.284C187.679 34.692 186.815 34.896 185.807 34.896C184.463 34.896 183.347 34.578 182.459 33.942C181.571 33.318 181.067 32.466 180.947 31.386H182.981C183.137 31.902 183.467 32.316 183.971 32.628C184.487 32.952 185.099 33.114 185.807 33.114C186.635 33.114 187.301 32.862 187.805 32.358C188.321 31.854 188.579 31.122 188.579 30.162V28.506C188.231 28.974 187.757 29.37 187.157 29.694C186.569 30.006 185.897 30.162 185.141 30.162C184.277 30.162 183.485 29.946 182.765 29.514C182.057 29.07 181.493 28.458 181.073 27.678C180.665 26.886 180.461 25.992 180.461 24.996C180.461 24 180.665 23.118 181.073 22.35C181.493 21.582 182.057 20.988 182.765 20.568C183.485 20.136 184.277 19.92 185.141 19.92ZM188.579 25.032C188.579 24.348 188.435 23.754 188.147 23.25C187.871 22.746 187.505 22.362 187.049 22.098C186.593 21.834 186.101 21.702 185.573 21.702C185.045 21.702 184.553 21.834 184.097 22.098C183.641 22.35 183.269 22.728 182.981 23.232C182.705 23.724 182.567 24.312 182.567 24.996C182.567 25.68 182.705 26.28 182.981 26.796C183.269 27.312 183.641 27.708 184.097 27.984C184.565 28.248 185.057 28.38 185.573 28.38C186.101 28.38 186.593 28.248 187.049 27.984C187.505 27.72 187.871 27.336 188.147 26.832C188.435 26.316 188.579 25.716 188.579 25.032Z" fill="#C140FD"/>
<rect x="4.5" y="0.5" width="207" height="47" rx="23.5" stroke="#EBBDFF"/>
</g>
<defs>
<filter id="filter0_d_4_1759" x="0" y="0" width="216" height="56" filterUnits="userSpaceOnUse" color-interpolation-filters="sRGB">
<feFlood flood-opacity="0" result="BackgroundImageFix"/>
<feColorMatrix in="SourceAlpha" type="matrix" values="0 0 0 0 0 0 0 0 0 0 0 0 0 0 0 0 0 0 127 0" result="hardAlpha"/>
<feOffset dy="4"/>
<feGaussianBlur stdDeviation="2"/>
<feComposite in2="hardAlpha" operator="out"/>
<feColorMatrix type="matrix" values="0 0 0 0 0 0 0 0 0 0 0 0 0 0 0 0 0 0 0.25 0"/>
<feBlend mode="normal" in2="BackgroundImageFix" result="effect1_dropShadow_4_1759"/>
<feBlend mode="normal" in="SourceGraphic" in2="effect1_dropShadow_4_1759" result="shape"/>
</filter>
</defs>
</svg>
